<?xml version="1.0" encoding="UTF-8"?>
<svg class="animated" version="1.1" viewBox="0 0 500 500" xmlns="http://www.w3.org/2000/svg" height="400px">
<style>svg#freepik_stories-deconstructed-food:not(.animated) .animable {opacity: 0;}svg#freepik_stories-deconstructed-food.animated #freepik--background-simple--inject-26 {animation: 1s 1 forwards cubic-bezier(.36,-0.01,.5,1.38) lightSpeedRight;animation-delay: 0s;}svg#freepik_stories-deconstructed-food.animated #freepik--Floor--inject-26 {animation: 1s 1 forwards cubic-bezier(.36,-0.01,.5,1.38) slideDown;animation-delay: 0s;}svg#freepik_stories-deconstructed-food.animated #freepik--Bread--inject-26 {animation: 1s 1 forwards cubic-bezier(.36,-0.01,.5,1.38) zoomOut;animation-delay: 0s;}svg#freepik_stories-deconstructed-food.animated #freepik--Lettuce--inject-26 {animation: 1s 1 forwards cubic-bezier(.36,-0.01,.5,1.38) lightSpeedRight;animation-delay: 0s;}svg#freepik_stories-deconstructed-food.animated #freepik--Jalapeno--inject-26 {animation: 1s 1 forwards cubic-bezier(.36,-0.01,.5,1.38) zoomOut;animation-delay: 0s;}svg#freepik_stories-deconstructed-food.animated #freepik--Sausage--inject-26 {animation: 1s 1 forwards cubic-bezier(.36,-0.01,.5,1.38) zoomOut;animation-delay: 0s;}svg#freepik_stories-deconstructed-food.animated #freepik--Onion--inject-26 {animation: 1s 1 forwards cubic-bezier(.36,-0.01,.5,1.38) slideLeft;animation-delay: 0s;}svg#freepik_stories-deconstructed-food.animated #freepik--Cucumber--inject-26 {animation: 1s 1 forwards cubic-bezier(.36,-0.01,.5,1.38) slideUp;animation-delay: 0s;}svg#freepik_stories-deconstructed-food.animated #freepik--Mustard--inject-26 {animation: 1s 1 forwards cubic-bezier(.36,-0.01,.5,1.38) slideLeft;animation-delay: 0s;}svg#freepik_stories-deconstructed-food.animated #freepik--Character--inject-26 {animation: 1s 1 forwards cubic-bezier(.36,-0.01,.5,1.38) slideUp;animation-delay: 0s;}            @keyframes lightSpeedRight {              from {                transform: translate3d(50%, 0, 0) skewX(-20deg);                opacity: 0;              }              60% {                transform: skewX(10deg);                opacity: 1;              }              80% {                transform: skewX(-2deg);              }              to {                opacity: 1;                transform: translate3d(0, 0, 0);              }            }                    @keyframes slideDown {                0% {                    opacity: 0;                    transform: translateY(-30px);                }                100% {                    opacity: 1;                    transform: translateY(0);                }            }                    @keyframes zoomOut {                0% {                    opacity: 0;                    transform: scale(1.5);                }                100% {                    opacity: 1;                    transform: scale(1);                }            }                    @keyframes slideLeft {                0% {                    opacity: 0;                    transform: translateX(-30px);                }                100% {                    opacity: 1;                    transform: translateX(0);                }            }                    @keyframes slideUp {                0% {                    opacity: 0;                    transform: translateY(30px);                }                100% {                    opacity: 1;                    transform: inherit;                }            }</style>
<g class="animable" style="transform-origin:250.016px 248.155px">
<path class="animable" d="M77.24,350.19C100.77,389,133,422.8,174.56,444.1c39.72,20.37,82,19.63,124.77,9.47,41.45-9.83,81.25-27.46,112.46-54.59s53.34-64.23,57.15-104-12-81.89-44.73-108.06c-36.43-29.16-88.14-36.1-126.39-63.15-21.28-15-37.33-35.56-57.23-52.16-19.68-16.41-43.47-29-69.27-33.77s-53.67-1.36-75.78,11.66C53.16,74.41,37.42,125.61,32.15,169.68,24.63,232.61,44,295.37,77.24,350.19Z" fill="#7c65d5" style="transform-origin:250.016px 248.155px"/>
<path class="animable" d="M77.24,350.19C100.77,389,133,422.8,174.56,444.1c39.72,20.37,82,19.63,124.77,9.47,41.45-9.83,81.25-27.46,112.46-54.59s53.34-64.23,57.15-104-12-81.89-44.73-108.06c-36.43-29.16-88.14-36.1-126.39-63.15-21.28-15-37.33-35.56-57.23-52.16-19.68-16.41-43.47-29-69.27-33.77s-53.67-1.36-75.78,11.66C53.16,74.41,37.42,125.61,32.15,169.68,24.63,232.61,44,295.37,77.24,350.19Z" fill="#fff" opacity=".7" style="transform-origin:250.016px 248.155px"/>
</g>
<g class="animable" style="transform-origin:233.5px 481px">
<ellipse class="animable" cx="233.5" cy="481" rx="77.5" ry="5" fill="#263238" style="transform-origin:233.5px 481px"/>
</g>
<g class="animable" style="transform-origin:229.814px 417.918px">
<path class="animable" d="m255.61 374.08s-42.79 6.38-68.34 8.15-45.94-3.61-57.89 4.65-13 33-4.71 50.76 15.24 24.14 28.25 28.89 45.48 6.86 95.94 2 75.76-22.44 84.57-40.68 7.87-26.26 4.5-28.81-12.09-5.44-12.09-5.44 3.58-16.5-10.36-26.36c-9.3-6.59-36.94 0.14-59.87 6.84z" fill="#fff" style="transform-origin:229.814px 417.918px"/>
<path class="animable" d="m134.55 453.89s4.89 2.71 13.13 2.18 15-10 23.66-18.05 42.06-15.77 75-17.22 59.38-8.26 73.62-13.62 20.04-2.18 20.04 1.08-5.36 18-7.9 22.48c-6.34 11.24-17.43 19.8-30.68 25.18s-33.08 10-55.84 12.93-54 2.09-64.87 1.58-31.6-1.17-46.16-16.54z" fill="#7c65d5" style="transform-origin:237.275px 437.625px"/>
<path class="animable" d="m134.55 453.89s4.89 2.71 13.13 2.18 15-10 23.66-18.05 42.06-15.77 75-17.22 59.38-8.26 73.62-13.62 20.04-2.18 20.04 1.08-4.79 18.24-7.9 22.48c-7.62 10.42-17.43 19.8-30.68 25.18s-33.08 10-55.84 12.93-54 2.09-64.87 1.58-31.6-1.17-46.16-16.54z" fill="#fff" opacity=".5" style="transform-origin:237.275px 437.625px"/>
<path class="animable" d="m255.61 374.08s-42.79 6.38-68.34 8.15-45.94-3.61-57.89 4.65-13 33-4.71 50.76 15.24 24.14 28.25 28.89 45.48 6.86 95.94 2 75.76-22.44 84.57-40.68 7.87-26.26 4.5-28.81-12.09-5.44-12.09-5.44 3.58-16.5-10.36-26.36c-9.3-6.59-36.94 0.14-59.87 6.84z" fill="none" stroke="#263238" stroke-miterlimit="10" style="transform-origin:229.814px 417.918px"/>
<path class="animable" d="m319.57 397.58a14.86 14.86 0 0 0 3.95-2.26" fill="#fff" stroke="#263238" stroke-miterlimit="10" style="transform-origin:321.545px 396.45px"/>
<path class="animable" d="M131.23,402.43c.14,3-1.39,8.71-.6,13.66,2.63,16.55,7.34,24.26,16.81,24.78s15.19-16.51,25.41-18.38,42.74-3.07,93.31-11.66c26.23-4.46,40.68-8.46,48.51-11.28" fill="#fff" stroke="#263238" stroke-miterlimit="10" style="transform-origin:222.536px 420.216px"/>
<path class="animable" d="M131.82,393a15.3,15.3,0,0,0-.63,4.42" fill="#fff" stroke="#263238" stroke-miterlimit="10" style="transform-origin:131.505px 395.21px"/>
<path class="animable" d="m182.26 440.18c0.83 0.86 1.74 2.5 1.3 2.93s-2.06-0.53-2.89-1.39-1.15-1.89-0.71-2.32 1.47-0.08 2.3 0.78z" fill="#fff" stroke="#263238" stroke-miterlimit="10" style="transform-origin:181.719px 441.216px"/>
<path class="animable" d="m199.84 440.54c-0.43 1.11-1.54 2.63-2.11 2.41s-0.39-2.09 0-3.2 1.24-1.84 1.81-1.62 0.72 1.3 0.3 2.41z" fill="#fff" stroke="#263238" stroke-miterlimit="10" style="transform-origin:198.724px 440.531px"/>
<path class="animable" d="m201.08 452.48c-0.43 1.11-1.54 2.63-2.11 2.41s-0.38-2.09 0-3.2 1.24-1.84 1.81-1.62 0.73 1.3 0.3 2.41z" fill="#fff" stroke="#263238" stroke-miterlimit="10" style="transform-origin:199.967px 452.471px"/>
<path class="animable" d="m191.51 447.24c-0.43 1.12-1.54 2.63-2.11 2.41s-0.38-2.08 0-3.2 1.24-1.84 1.81-1.62 0.73 1.3 0.3 2.41z" fill="#fff" stroke="#263238" stroke-miterlimit="10" style="transform-origin:190.397px 447.231px"/>
<path class="animable" d="m180 454.48c-0.43 1.11-1.54 2.63-2.11 2.41s-0.38-2.09 0-3.2 1.24-1.84 1.81-1.62 0.73 1.29 0.3 2.41z" fill="#fff" stroke="#263238" stroke-miterlimit="10" style="transform-origin:178.887px 454.471px"/>
<path class="animable" d="m212.26 428.39c0.83 0.86 1.74 2.5 1.3 2.93s-2.06-0.53-2.89-1.39-1.15-1.89-0.71-2.32 1.47-0.07 2.3 0.78z" fill="#fff" stroke="#263238" stroke-miterlimit="10" style="transform-origin:211.719px 429.427px"/>
<path class="animable" d="m229.84 428.75c-0.43 1.12-1.54 2.63-2.11 2.41s-0.38-2.09 0-3.2 1.24-1.84 1.81-1.62 0.73 1.3 0.3 2.41z" fill="#fff" stroke="#263238" stroke-miterlimit="10" style="transform-origin:228.727px 428.741px"/>
<path class="animable" d="m231.08 440.69c-0.43 1.12-1.54 2.63-2.11 2.41s-0.38-2.09 0-3.2 1.24-1.84 1.81-1.62 0.73 1.3 0.3 2.41z" fill="#fff" stroke="#263238" stroke-miterlimit="10" style="transform-origin:229.967px 440.681px"/>
<path class="animable" d="m221.51 435.46c-0.43 1.11-1.54 2.62-2.11 2.4s-0.38-2.08 0-3.2 1.24-1.84 1.81-1.62 0.73 1.3 0.3 2.42z" fill="#fff" stroke="#263238" stroke-miterlimit="10" style="transform-origin:220.397px 435.441px"/>
<path class="animable" d="m210 442.69c-0.43 1.12-1.54 2.63-2.11 2.41s-0.38-2.09 0-3.2 1.24-1.84 1.81-1.62 0.73 1.3 0.3 2.41z" fill="#fff" stroke="#263238" stroke-miterlimit="10" style="transform-origin:208.887px 442.681px"/>
<path class="animable" d="m215.62 447.82c0.83 0.86 1.74 2.51 1.3 2.93s-2-0.53-2.88-1.38-1.15-1.9-0.72-2.32 1.47-0.05 2.3 0.77z" fill="#fff" stroke="#263238" stroke-miterlimit="10" style="transform-origin:215.077px 448.864px"/>
<path class="animable" d="m233.2 448.19c-0.43 1.11-1.54 2.62-2.11 2.4s-0.38-2.08 0-3.2 1.24-1.84 1.81-1.62 0.73 1.3 0.3 2.42z" fill="#fff" stroke="#263238" stroke-miterlimit="10" style="transform-origin:232.087px 448.171px"/>
<path class="animable" d="m234.44 460.13c-0.42 1.11-1.53 2.62-2.1 2.4s-0.39-2.08 0-3.2 1.23-1.84 1.8-1.62 0.73 1.29 0.3 2.42z" fill="#fff" stroke="#263238" stroke-miterlimit="10" style="transform-origin:233.331px 460.111px"/>
<path class="animable" d="m224.87 454.89c-0.42 1.11-1.53 2.63-2.1 2.41s-0.39-2.09 0-3.2 1.23-1.84 1.8-1.62 0.73 1.29 0.3 2.41z" fill="#fff" stroke="#263238" stroke-miterlimit="10" style="transform-origin:223.761px 454.881px"/>
<path class="animable" d="m213.36 462.12c-0.43 1.12-1.54 2.63-2.11 2.41s-0.38-2.08 0-3.2 1.24-1.84 1.81-1.62 0.73 1.29 0.3 2.41z" fill="#fff" stroke="#263238" stroke-miterlimit="10" style="transform-origin:212.247px 462.111px"/>
<path class="animable" d="m244.22 435.92c0.83 0.86 1.73 2.5 1.29 2.93s-2-0.53-2.88-1.38-1.15-1.9-0.71-2.33 1.46-0.07 2.3 0.78z" fill="#fff" stroke="#263238" stroke-miterlimit="10" style="transform-origin:243.669px 436.957px"/>
<path class="animable" d="m261.79 436.28c-0.42 1.12-1.54 2.63-2.11 2.41s-0.38-2.08 0.05-3.2 1.23-1.84 1.8-1.62 0.69 1.3 0.26 2.41z" fill="#fff" stroke="#263238" stroke-miterlimit="10" style="transform-origin:260.687px 436.271px"/>
<path class="animable" d="m263 448.22c-0.42 1.12-1.53 2.63-2.1 2.41s-0.39-2.08 0-3.2 1.23-1.84 1.8-1.62 0.76 1.3 0.3 2.41z" fill="#fff" stroke="#263238" stroke-miterlimit="10" style="transform-origin:261.897px 448.211px"/>
<path class="animable" d="m253.46 443c-0.42 1.11-1.53 2.63-2.1 2.41s-0.39-2.09 0-3.2 1.23-1.84 1.8-1.63 0.73 1.29 0.3 2.42z" fill="#fff" stroke="#263238" stroke-miterlimit="10" style="transform-origin:252.351px 442.988px"/>
<path class="animable" d="m242 450.22c-0.42 1.12-1.53 2.63-2.1 2.41s-0.39-2.08 0-3.2 1.23-1.84 1.8-1.62 0.68 1.3 0.3 2.41z" fill="#fff" stroke="#263238" stroke-miterlimit="10" style="transform-origin:240.88px 450.211px"/>
<path class="animable" d="m273.85 421.7c0.83 0.86 1.73 2.5 1.29 2.93s-2.05-0.53-2.88-1.39-1.15-1.89-0.71-2.32 1.45-0.07 2.3 0.78z" fill="#fff" stroke="#263238" stroke-miterlimit="10" style="transform-origin:273.304px 422.737px"/>
<path class="animable" d="m291.42 422.06c-0.42 1.12-1.53 2.63-2.1 2.41s-0.39-2.09 0-3.2 1.23-1.84 1.8-1.62 0.73 1.35 0.3 2.41z" fill="#fff" stroke="#263238" stroke-miterlimit="10" style="transform-origin:290.311px 422.051px"/>
<path class="animable" d="m292.67 434c-0.43 1.12-1.54 2.63-2.11 2.41s-0.39-2.09 0-3.2 1.24-1.84 1.81-1.62 0.72 1.3 0.3 2.41z" fill="#fff" stroke="#263238" stroke-miterlimit="10" style="transform-origin:291.554px 433.991px"/>
<path class="animable" d="m283.1 428.77c-0.43 1.11-1.54 2.62-2.11 2.4s-0.39-2.08 0-3.2 1.24-1.84 1.81-1.62 0.72 1.3 0.3 2.42z" fill="#fff" stroke="#263238" stroke-miterlimit="10" style="transform-origin:281.984px 428.751px"/>
<path class="animable" d="m271.58 436c-0.42 1.11-1.53 2.63-2.1 2.41s-0.39-2.09 0-3.2 1.23-1.84 1.8-1.62 0.72 1.3 0.3 2.41z" fill="#fff" stroke="#263238" stroke-miterlimit="10" style="transform-origin:270.469px 435.991px"/>
<path class="animable" d="m283.24 439.9c0.83 0.85 1.74 2.5 1.3 2.92s-2.05-0.53-2.89-1.38-1.15-1.9-0.71-2.32 1.47-0.12 2.3 0.78z" fill="#fff" stroke="#263238" stroke-miterlimit="10" style="transform-origin:282.698px 440.928px"/>
<path class="animable" d="m300.82 440.26c-0.43 1.11-1.54 2.62-2.11 2.4s-0.38-2.08 0-3.2 1.24-1.84 1.81-1.62 0.73 1.3 0.3 2.42z" fill="#fff" stroke="#263238" stroke-miterlimit="10" style="transform-origin:299.707px 440.241px"/>
<path class="animable" d="m302.06 452.2c-0.42 1.11-1.54 2.62-2.11 2.41s-0.38-2.09 0.05-3.21 1.23-1.84 1.8-1.62 0.69 1.3 0.26 2.42z" fill="#fff" stroke="#263238" stroke-miterlimit="10" style="transform-origin:300.957px 452.185px"/>
<path class="animable" d="m292.49 447c-0.42 1.11-1.54 2.63-2.11 2.41s-0.38-2.09 0.05-3.2 1.23-1.84 1.8-1.62 0.69 1.26 0.26 2.41z" fill="#fff" stroke="#263238" stroke-miterlimit="10" style="transform-origin:291.387px 446.991px"/>
<path class="animable" d="m281 454.19c-0.43 1.12-1.54 2.63-2.11 2.41s-0.38-2.08 0-3.2 1.24-1.84 1.81-1.62 0.71 1.3 0.3 2.41z" fill="#fff" stroke="#263238" stroke-miterlimit="10" style="transform-origin:279.883px 454.181px"/>
<path class="animable" d="m305 415.52c0.83 0.86 1.74 2.5 1.3 2.93s-2.06-0.53-2.89-1.39-1.15-1.89-0.71-2.32 1.49-0.07 2.3 0.78z" fill="#fff" stroke="#263238" stroke-miterlimit="10" style="transform-origin:304.459px 416.557px"/>
<path class="animable" d="m322.6 415.88c-0.43 1.12-1.54 2.63-2.11 2.41s-0.39-2.08 0-3.2 1.24-1.84 1.81-1.62 0.7 1.3 0.3 2.41z" fill="#fff" stroke="#263238" stroke-miterlimit="10" style="transform-origin:321.479px 415.871px"/>
<path class="animable" d="m323.84 427.82c-0.43 1.12-1.54 2.63-2.11 2.41s-0.38-2.08 0-3.2 1.24-1.84 1.81-1.62 0.73 1.3 0.3 2.41z" fill="#fff" stroke="#263238" stroke-miterlimit="10" style="transform-origin:322.727px 427.811px"/>
<path class="animable" d="m314.27 422.59c-0.43 1.11-1.54 2.62-2.11 2.41s-0.38-2.09 0-3.21 1.24-1.84 1.81-1.62 0.73 1.3 0.3 2.42z" fill="#fff" stroke="#263238" stroke-miterlimit="10" style="transform-origin:313.157px 422.575px"/>
<path class="animable" d="m302.76 429.82c-0.43 1.12-1.54 2.63-2.11 2.41s-0.39-2.09 0-3.2 1.24-1.84 1.81-1.62 0.72 1.3 0.3 2.41z" fill="#fff" stroke="#263238" stroke-miterlimit="10" style="transform-origin:301.644px 429.811px"/>
<path class="animable" d="m257.61 448.78c-0.11 1.18-0.75 3-1.36 2.89s-0.95-1.89-0.85-3.08 0.68-2.11 1.29-2.06 1.02 1.06 0.92 2.25z" fill="#fff" stroke="#263238" stroke-miterlimit="10" style="transform-origin:256.504px 449.101px"/>
<path class="animable" d="M268.85,462.29c-1.12.41-3,.56-3.2,0s1.33-1.65,2.45-2.06,2.2-.27,2.41.3S270,461.88,268.85,462.29Z" fill="#fff" stroke="#263238" stroke-miterlimit="10" style="transform-origin:268.089px 461.325px"/>
<path class="animable" d="m313.88 441.14c-0.86 0.82-2.52 1.71-2.94 1.27s0.55-2.05 1.41-2.87 1.91-1.13 2.33-0.69 0.07 1.47-0.8 2.29z" fill="#fff" stroke="#263238" stroke-miterlimit="10" style="transform-origin:312.848px 440.588px"/>
<path class="animable" d="m332.09 418.24c-0.45 1.11-1.59 2.6-2.16 2.37s-0.34-2.1 0.11-3.2 1.27-1.82 1.84-1.59 0.66 1.32 0.21 2.42z" fill="#fff" stroke="#263238" stroke-miterlimit="10" style="transform-origin:330.984px 418.205px"/>
<path class="animable" d="m291.93 456.22c-0.86 0.82-2.51 1.71-2.94 1.26s0.55-2.05 1.42-2.87 1.9-1.13 2.33-0.69 0.06 1.47-0.81 2.3z" fill="#fff" stroke="#263238" stroke-miterlimit="10" style="transform-origin:290.903px 455.66px"/>
<path class="animable" d="m247.15 463.81c-1.12 0.4-3 0.56-3.2 0s1.32-1.66 2.45-2.06 2.2-0.28 2.4 0.3-0.53 1.35-1.65 1.76z" fill="#fff" stroke="#263238" stroke-miterlimit="10" style="transform-origin:246.383px 462.844px"/>
<path class="animable" d="m193.65 466.81c-1.19 0.05-3-0.37-3.05-1s1.77-1.17 3-1.22 2.18 0.4 2.2 1-0.96 1.17-2.15 1.22z" fill="#fff" stroke="#263238" stroke-miterlimit="10" style="transform-origin:193.2px 465.7px"/>
<path class="animable" d="m189.3 459.9c-1.19 0.05-3-0.37-3-1s1.76-1.18 3-1.23 2.18 0.41 2.21 1-1.02 1.19-2.21 1.23z" fill="#fff" stroke="#263238" stroke-miterlimit="10" style="transform-origin:188.905px 458.785px"/>
<path class="animable" d="m168.4 465.23c-1.16-0.31-2.78-1.25-2.62-1.84s2-0.6 3.18-0.3 2 1 1.81 1.63-1.22 0.82-2.37 0.51z" fill="#fff" stroke="#263238" stroke-miterlimit="10" style="transform-origin:168.283px 464.136px"/>
<path class="animable" d="m173.06 451.15c-0.89 0.8-2.57 1.64-3 1.19s0.6-2 1.49-2.83 1.94-1.08 2.35-0.62 0.1 1.47-0.84 2.26z" fill="#fff" stroke="#263238" stroke-miterlimit="10" style="transform-origin:172.018px 450.564px"/>
<path class="animable" d="M224.07,465.44c-1.12.41-3,.56-3.2,0s1.32-1.65,2.45-2.06,2.2-.27,2.4.3S225.19,465,224.07,465.44Z" fill="#fff" stroke="#263238" stroke-miterlimit="10" style="transform-origin:223.303px 464.475px"/>
<path class="animable" d="M258.33,460.39c-1.12.41-3,.56-3.2,0s1.33-1.66,2.45-2.07,2.2-.27,2.41.3S259.46,460,258.33,460.39Z" fill="#fff" stroke="#263238" stroke-miterlimit="10" style="transform-origin:257.569px 459.42px"/>
<path class="animable" d="M254.91,429.65c-1.12.4-3,.56-3.2,0s1.32-1.66,2.44-2.06,2.2-.28,2.41.3S256,429.24,254.91,429.65Z" fill="#fff" stroke="#263238" stroke-miterlimit="10" style="transform-origin:254.143px 428.684px"/>
</g>
<g class="animable" stroke="#263238" stroke-miterlimit="10" style="transform-origin:233.377px 366.353px">
<path class="animable" d="M201.88,379s-7.82-10.42-6.59-18.23-5.58-11.62-7.44-9.09.05,8.31-4.19,5.49-3.76-13.29-7.09-16.94-6.6,1-5.81,2.79-1.49,3.87-4.9,2-6.84-22.17-13.68-15.94,3.37,12-.16,12.68-14.84-9.87-18-7.83,5.32,7.67,3.08,8.88-8.64-2.15-10.17,2.59,10,1.77,9.77,6.14-6.89,7.11-5.31,10.68,13,3.22,11.89,7.54-1.35,10.43,4.3,11.13,13.16-1.14,10.8,2.69,1.38,7.93,7.94,7.8S178,394.09,176.52,398s5.41,5.94,9,4.35,8.51-4.41,9.63-.42,4.66,3.27,7.82,1.23,6.68-2.75,7.85.37,8.8-1.34,8.8-1.34,8.23,1.69,10,.9.61-3.91-2.34-6.23-9.19-9.17-10-10.95-5.37-6.81-6.74-5.56S202.63,381.68,201.88,379Z" fill="#7c65d5" style="transform-origin:178.623px 366.353px"/>
<path class="animable" d="m149.23 356.8a44.44 44.44 0 0 1-3.84-4" fill="none" style="transform-origin:147.31px 354.8px"/>
<path class="animable" d="m203.23 390.13c-2.49-1.06-5-2.1-7.41-3.08-11.06-4.5-29.6-16.13-41.52-25.85" fill="none" style="transform-origin:178.765px 375.665px"/>
<path class="animable" d="m228 401.21s-8.52-4-18.62-8.43" fill="none" style="transform-origin:218.69px 396.995px"/>
<path class="animable" d="M304.45,355.74s-12.6-1.4-17.31-7.49-12-3.8-11.4-.78,5.92,5.5,1.09,6.62-11.92-6.2-16.72-6.28-3.7,5.35-1.9,6,1.74,3.64-1.88,4.78-20.28-9.94-20.42-.93,10.73,5.58,8.88,8.56-16.9,3.93-17.55,7.53,9,1.34,8.35,3.74-7.29,4.69-5,8.93,7.9-5.88,10.86-2.83.45,9.62,4,10.88,10.93-7,13.28-3.39,6.48,7.92,10.74,4.38,8-10.08,9.11-5.86,6.54,4.31,10.83-.43,9.72-6.45,11.46-2.82,7.81.13,9.07-3.45,2.55-9,6.12-7.12,5.43-1.11,6.09-4.71,2.51-6.57,5.49-5.32,4.93-7.13,4.93-7.13,6.68-4.7,7.31-6.49-2.35-3-6-2.5-12.62.4-14.41-.23-8.41-.74-8.44,1.06S306.83,357,304.45,355.74Z" fill="#7c65d5" style="transform-origin:283.587px 370.6px"/>
<path class="animable" d="m253.59 378.22a42.8 42.8 0 0 1-5.39 0" fill="none" style="transform-origin:250.895px 378.262px"/>
<path class="animable" d="m313.22 362.2c-2.41 1.05-4.82 2.13-7.12 3.18-10.57 4.85-31.17 10.22-46 12.18" fill="none" style="transform-origin:286.66px 369.88px"/>
<path class="animable" d="m337.56 352.07s-8.52 3.37-18.4 7.57" fill="none" style="transform-origin:328.36px 355.855px"/>
</g>
<g class="animable" style="transform-origin:229.151px 140.037px">
<path class="animable" d="m215.47 108.53s-1.88-13.35-12.81-16.8-22.5 4.08-27.52 10.77-5.6 14.4-2.64 18.89 11.48 12.8 22.43 14.85 16.48-3.81 18.84-9.05a27.25 27.25 0 0 0 1.7-18.66z" fill="#7c65d5" stroke="#263238" stroke-miterlimit="10" style="transform-origin:193.546px 113.762px"/>
<path class="animable" d="m212.83 109.15s-1.66-11.74-11.27-14.77-19.78 3.59-24.19 9.47-4.93 12.66-2.32 16.61 10.09 11.25 19.71 13 14.49-3.34 16.57-7.95a24 24 0 0 0 1.5-16.36z" fill="#fff" style="transform-origin:193.546px 113.717px"/>
<path class="animable" d="M195.67,102.61s.7-2.64-1.26-4-7,.28-12.12,4.3-5.88,11-5.51,12.76,5.94,1.16,5.94,1.16l.77,1.86s-2.83,3-2.59,4.46,7.45,6.08,14,7.65,10.23-2.35,10-3.68a25.24,25.24,0,0,0-1.27-3.73l.43-1.85s4.24.07,5.46-1.9.3-10.06-1.89-14.33-7.19-5.41-8.13-4.9-1.9,2.75-1.9,2.75A5.32,5.32,0,0,1,195.67,102.61Z" fill="#7c65d5" style="transform-origin:193.382px 114.653px"/>
<path class="animable" d="M199.93,109s-2.09-1.89-1.27-3.07,2.4-1.42,1.5-3-5-1.54-5.68-.76.91,1.21.89,2.4-.56,1.85-3,2.87-4.59,5.35-5.14,6.93-1.37,2.63-2.82,1.94-2.76-1.1-2.66.76,2.31,4.8,3.24,4.29.55-1.19,1.08-1.18,6.33,2.09,8.71,2.26,3.86-1.66,4.78-1.11.48,3.45,1.93,3.6,4.8-2.17,4.16-3.64-1.73.5-3.28-1.77-.15-6.89-.78-8.76S199.93,109,199.93,109Z" fill="#fff" style="transform-origin:193.737px 113.29px"/>
<path class="animable" d="m191.13 104.7c0.83 0.86 1.74 2.5 1.3 2.93s-2.06-0.53-2.89-1.39-1.15-1.89-0.71-2.32 1.47-0.08 2.3 0.78z" fill="#fff" style="transform-origin:190.589px 105.736px"/>
<path class="animable" d="m202.28 107.2c-0.93 0.75-2.65 1.5-3 1s0.72-2 1.65-2.74 2-1 2.37-0.5-0.09 1.49-1.02 2.24z" fill="#fff" style="transform-origin:201.32px 106.532px"/>
<path class="animable" d="m187.39 123.74c0.32-1.14 1.29-2.75 1.88-2.58s0.57 2 0.24 3.19-1.06 1.94-1.65 1.77-0.8-1.23-0.47-2.38z" fill="#fff" style="transform-origin:188.487px 123.646px"/>
<path class="animable" d="m191.61 124.77c0.17-1.18 0.91-2.91 1.51-2.82s0.85 1.94 0.69 3.12-0.79 2.08-1.4 2-0.96-1.07-0.8-2.3z" fill="#fff" style="transform-origin:192.714px 124.511px"/>
<path class="animable" d="m197.35 125.33c-0.5-1.08-0.81-2.93-0.26-3.19s1.77 1.18 2.27 2.26 0.46 2.17-0.1 2.43-1.41-0.41-1.91-1.5z" fill="#fff" style="transform-origin:198.254px 124.498px"/>
<path class="animable" d="M204.52,111c-1.1.48-3,.74-3.2.18s1.22-1.74,2.32-2.21,2.18-.4,2.42.16S205.61,110.52,204.52,111Z" fill="#fff" style="transform-origin:203.704px 110.078px"/>
<path class="animable" d="m204.43 116.9c-1.2 0.06-3-0.35-3.05-1s1.75-1.19 3-1.25 2.18 0.4 2.2 1-0.96 1.2-2.15 1.25z" fill="#fff" style="transform-origin:203.98px 115.775px"/>
<path class="animable" d="m187.9 107.69c0.83 0.86 1.74 2.5 1.3 2.93s-2-0.53-2.88-1.38-1.15-1.9-0.72-2.33 1.47-0.07 2.3 0.78z" fill="#fff" style="transform-origin:187.357px 108.727px"/>
<path class="animable" d="M185,112c1,.67,2.22,2.09,1.88,2.6s-2.12-.1-3.11-.76-1.52-1.62-1.18-2.13S184.05,111.35,185,112Z" fill="#fff" style="transform-origin:184.713px 113.097px"/>
<path class="animable" d="m276.83 184.85s11.09-5.74 10.76-16.35-10.44-18.42-17.83-20.76-14.31-0.49-17.32 3.47-7.69 13.95-6.13 24.15 8.37 13.25 13.68 13.71a25.27 25.27 0 0 0 16.84-4.22z" fill="#7c65d5" stroke="#263238" stroke-miterlimit="10" style="transform-origin:266.799px 167.959px"/>
<path class="animable" d="m275.47 182.72s9.76-5 9.47-14.37-9.19-16.19-15.68-18.25-12.58-0.44-15.23 3.05-6.76 12.27-5.38 21.24 7.35 11.64 12 12a22.14 22.14 0 0 0 14.82-3.67z" fill="#fff" style="transform-origin:266.66px 167.856px"/>
<path class="animable" d="M275.94,165.72s2.52-.19,3.11-2.32-2.4-6.06-7.48-9.28-11.44-1.76-12.84-.91.81,5.55.81,5.55l-1.4,1.23s-3.48-1.55-4.69-.89-3,8.37-2.38,14.62,5.19,8.23,6.27,7.61a22.86,22.86,0,0,0,2.88-2.25l1.74-.19s1.24,3.72,3.33,4.19,8.89-2.82,12-6,2.53-8,1.79-8.61-3-.82-3-.82A5.18,5.18,0,0,1,275.94,165.72Z" fill="#7c65d5" style="transform-origin:265.305px 167.629px"/>
<path class="animable" d="M271.63,171.42s1-2.41,2.29-2.06,2,1.67,3.1.39-.19-4.84-1.08-5.19-.77,1.16-1.82,1.51-1.79.07-3.41-1.72-6.09-2.37-7.64-2.37-2.72-.39-2.56-1.87.12-2.75-1.47-2.09-3.5,3.48-2.76,4.14,1.2.12,1.36.59.11,6.17.68,8.3,2.64,2.87,2.44,3.84-2.87,1.47-2.56,2.79,3.37,3.54,4.46,2.53-1-1.36.54-3.41,6-2.25,7.42-3.37S271.63,171.42,271.63,171.42Z" fill="#fff" style="transform-origin:266.78px 169.153px"/>
<path class="animable" d="m272.73 162.39c-0.5 1-1.66 2.29-2.17 2s-0.16-2 0.33-2.94 1.31-1.59 1.81-1.34 0.52 1.29 0.03 2.28z" fill="#fff" style="transform-origin:271.698px 162.244px"/>
<path class="animable" d="m274 172.91c-0.94-0.59-2.12-1.86-1.82-2.34s2 0 2.9 0.6 1.46 1.45 1.16 1.93-1.35 0.39-2.24-0.19z" fill="#fff" style="transform-origin:274.227px 171.892px"/>
<path class="animable" d="M254.93,164.94c1.1-.06,2.81.3,2.84.86s-1.61,1.13-2.72,1.19-2-.34-2.06-.9S253.83,165,254.93,164.94Z" fill="#fff" style="transform-origin:255.379px 165.965px"/>
<path class="animable" d="M255.33,169c1.08-.22,2.82-.1,2.93.45s-1.44,1.34-2.53,1.56-2-.06-2.16-.62S254.24,169.17,255.33,169Z" fill="#fff" style="transform-origin:255.908px 169.991px"/>
<path class="animable" d="m256.59 174.15c0.79-0.77 2.32-1.61 2.71-1.21s-0.49 1.91-1.28 2.68-1.76 1.06-2.15 0.66-0.07-1.36 0.72-2.13z" fill="#fff" style="transform-origin:257.55px 174.648px"/>
<path class="animable" d="M271.32,176c-.75-.81-1.55-2.36-1.13-2.74s1.89.54,2.64,1.35,1,1.78.6,2.17S272.07,176.83,271.32,176Z" fill="#fff" style="transform-origin:271.847px 175.056px"/>
<path class="animable" d="m266.12 177.75c-0.41-1-0.61-2.75-0.08-3s1.57 1.17 2 2.2 0.32 2-0.21 2.24-1.29-0.41-1.71-1.44z" fill="#fff" style="transform-origin:267.012px 176.98px"/>
<path class="animable" d="m269.12 160.49c-0.49 1-1.65 2.28-2.16 2s-0.17-2 0.33-3 1.3-1.58 1.81-1.33 0.52 1.34 0.02 2.33z" fill="#fff" style="transform-origin:268.098px 160.316px"/>
<path class="animable" d="m264.47 159.31c-0.28 1.07-1.15 2.57-1.69 2.43s-0.57-1.88-0.29-3 0.95-1.82 1.49-1.68 0.77 1.18 0.49 2.25z" fill="#fff" style="transform-origin:263.453px 159.396px"/>
</g>
<g class="animable" style="transform-origin:220.877px 283.418px">
<path class="animable" d="M224,318.57a198.07,198.07,0,0,1-45.38-6c-35.5-9-57.89-25.11-58.83-25.79a21.29,21.29,0,0,1,25-34.49c.44.31,18.11,12.65,46,19.41,36.76,8.91,73.5,4.41,109.18-13.38a21.29,21.29,0,0,1,19,38.11C284.1,313.76,251.53,319,224,318.57Z" fill="#7c65d5" stroke="#263238" stroke-miterlimit="10" style="transform-origin:220.877px 283.418px"/>
<path class="animable" d="m325.4 282.24a19.56 19.56 0 0 1-10 11.76 195.4 195.4 0 0 1-46.88 16.51" fill="none" stroke="#263238" stroke-miterlimit="10" style="transform-origin:296.96px 296.375px"/>
<path class="animable" d="m324.9 269.22a19.6 19.6 0 0 1 1.33 5.75" fill="none" stroke="#263238" stroke-miterlimit="10" style="transform-origin:325.565px 272.095px"/>
<path class="animable" d="m158.64 299.59q-2.53-1.08-4.86-2.16" fill="none" stroke="#263238" stroke-miterlimit="10" style="transform-origin:156.21px 298.51px"/>
<path class="animable" d="m261 311.94a181.7 181.7 0 0 1-75-3.06 187.09 187.09 0 0 1-23-7.48" fill="none" stroke="#263238" stroke-miterlimit="10" style="transform-origin:212px 307.938px"/>
<path class="animable" d="m147.36 256s2.91 4.91-0.6 14.21-5 10.77-2.42 10.82 7.23-7.37 8.09-14.84-2.43-10.5-5.07-10.19z" opacity=".2" style="transform-origin:147.804px 268.504px"/>
<path class="animable" d="m167.43 265s2.91 4.91-0.61 14.21-5 10.78-2.42 10.82 7.23-7.37 8.1-14.84-2.45-10.57-5.07-10.19z" opacity=".2" style="transform-origin:167.869px 277.5px"/>
<path class="animable" d="m189 272.79s2.91 4.91-0.61 14.21-5 10.77-2.42 10.81 7.23-7.37 8.1-14.84-2.44-10.52-5.07-10.18z" opacity=".2" style="transform-origin:189.439px 285.287px"/>
<path class="animable" d="m210.3 276.67s3.48 4.53 1.08 14.18-3.74 11.29-1.13 11 6.31-8.17 6.29-15.69-3.67-10.16-6.24-9.49z" opacity=".2" style="transform-origin:212.684px 289.225px"/>
<path class="animable" d="m231.17 278.06s3.89 4.19 2.43 14-2.64 11.6-0.07 11.08 5.5-8.73 4.76-16.22-4.62-9.74-7.12-8.86z" opacity=".2" style="transform-origin:234.788px 290.55px"/>
<path class="animable" d="m255.87 276.8s4.49 3.53 4.57 13.48-0.81 11.86 1.65 11 4.08-9.49 2.19-16.77-6.08-8.96-8.41-7.71z" opacity=".2" style="transform-origin:260.488px 288.943px"/>
<path class="animable" d="m281.36 270.1s4.92 2.89 6.32 12.74 0.79 11.87 3.1 10.64 2.78-9.94-0.06-16.91-7.22-8.03-9.36-6.47z" opacity=".2" style="transform-origin:287.022px 281.638px"/>
</g>
<g class="animable" stroke="#263238" stroke-linecap="round" stroke-linejoin="round" style="transform-origin:237.874px 228.708px">
<path class="animable" d="m160.55 133.14c-10.81-0.18-19.7 7.59-19.86 17.34s8.48 17.8 19.29 18 19.69-7.59 19.85-17.34-8.48-17.83-19.28-18zm-1.93 33.86c-9.13-0.15-16.43-6.7-16.3-14.65s7.63-14.26 16.76-14.11 16.42 6.71 16.3 14.65-7.64 14.25-16.76 14.11z" fill="#fff" style="transform-origin:160.26px 150.81px"/>
<line class="animable" x1="169.65" x2="168.64" y1="135.58" y2="137.03" fill="none" style="transform-origin:169.145px 136.305px"/>
<line class="animable" x1="174.59" x2="173.72" y1="139.32" y2="140.17" fill="none" style="transform-origin:174.155px 139.745px"/>
<line class="animable" x1="178.65" x2="177.17" y1="145.01" y2="145.96" fill="none" style="transform-origin:177.91px 145.485px"/>
<line class="animable" x1="161.62" x2="161.47" y1="133.5" y2="134.96" fill="none" style="transform-origin:161.545px 134.23px"/>
<line class="animable" x1="152.93" x2="152.91" y1="134.7" y2="135.55" fill="none" style="transform-origin:152.92px 135.125px"/>
<line class="animable" x1="179.48" x2="177.77" y1="154.43" y2="154.28" fill="none" style="transform-origin:178.625px 154.355px"/>
<line class="animable" x1="165.49" x2="166.2" y1="166.17" y2="167.65" fill="none" style="transform-origin:165.845px 166.91px"/>
<line class="animable" x1="173.87" x2="174.95" y1="161.66" y2="162.41" fill="none" style="transform-origin:174.41px 162.035px"/>
<line class="animable" x1="145.27" x2="145.75" y1="139.95" y2="140.32" fill="none" style="transform-origin:145.51px 140.135px"/>
<path class="animable" d="m211.45 251.34c13.43-2.58 22.42-14.5 20.08-26.61s-15.1-19.83-28.53-17.25-22.4 14.52-20.07 26.61 15.07 19.83 28.52 17.25zm-6.38-42.4c11.34-2.18 22.07 4 24 13.91s-5.75 19.62-17.08 21.8-22.06-4-24-13.9 5.75-19.63 17.08-21.81z" fill="#fff" style="transform-origin:207.231px 229.41px"/>
<line class="animable" x1="199.56" x2="200.42" y1="250.67" y2="248.62" fill="none" style="transform-origin:199.99px 249.645px"/>
<line class="animable" x1="192.47" x2="193.33" y1="247.32" y2="246.05" fill="none" style="transform-origin:192.9px 246.685px"/>
<line class="animable" x1="185.97" x2="187.56" y1="241.33" y2="239.77" fill="none" style="transform-origin:186.765px 240.55px"/>
<line class="animable" x1="210.04" x2="209.84" y1="251.17" y2="249.32" fill="none" style="transform-origin:209.94px 250.245px"/>
<line class="animable" x1="220.48" x2="220.28" y1="247.43" y2="246.37" fill="none" style="transform-origin:220.38px 246.9px"/>
<line class="animable" x1="182.51" x2="184.66" y1="229.89" y2="229.64" fill="none" style="transform-origin:183.585px 229.765px"/>
<line class="animable" x1="196.78" x2="195.52" y1="211.73" y2="210.09" fill="none" style="transform-origin:196.15px 210.91px"/>
<line class="animable" x1="187.58" x2="186.04" y1="219.48" y2="218.83" fill="none" style="transform-origin:186.81px 219.155px"/>
<line class="animable" x1="228.6" x2="227.9" y1="238.95" y2="238.61" fill="none" style="transform-origin:228.25px 238.78px"/>
<path class="animable" d="m314.61 323.78c13.43-2.58 22.42-14.49 20.08-26.6s-15.1-19.83-28.52-17.25-22.41 14.49-20.08 26.6 15.1 19.84 28.52 17.25zm-6.37-42.4c11.33-2.18 22.06 4.05 24 13.91s-5.76 19.63-17.09 21.81-22.06-4.05-24-13.91 5.75-19.62 17.09-21.81z" fill="#fff" style="transform-origin:310.391px 301.856px"/>
<line class="animable" x1="302.72" x2="303.58" y1="323.11" y2="321.06" fill="none" style="transform-origin:303.15px 322.085px"/>
<line class="animable" x1="295.63" x2="296.49" y1="319.76" y2="318.5" fill="none" style="transform-origin:296.06px 319.13px"/>
<line class="animable" x1="289.13" x2="290.72" y1="313.78" y2="312.22" fill="none" style="transform-origin:289.925px 313px"/>
<line class="animable" x1="313.2" x2="313" y1="323.61" y2="321.77" fill="none" style="transform-origin:313.1px 322.69px"/>
<line class="animable" x1="323.64" x2="323.44" y1="319.87" y2="318.81" fill="none" style="transform-origin:323.54px 319.34px"/>
<line class="animable" x1="285.67" x2="287.82" y1="302.34" y2="302.08" fill="none" style="transform-origin:286.745px 302.21px"/>
<line class="animable" x1="299.94" x2="298.68" y1="284.18" y2="282.54" fill="none" style="transform-origin:299.31px 283.36px"/>
<line class="animable" x1="290.74" x2="289.2" y1="291.93" y2="291.28" fill="none" style="transform-origin:289.97px 291.605px"/>
<line class="animable" x1="331.76" x2="331.06" y1="311.39" y2="311.06" fill="none" style="transform-origin:331.41px 311.225px"/>
</g>
<g class="animable" style="transform-origin:224.962px 269.65px">
<path class="animable" d="M334.41,218.45c0,1.67-2.41,3.1-2.69,4.7s1.47,3.79.94,5.33-3.24,2.18-4,3.63.23,4-.76,5.35-3.76,1.07-4.94,2.22-1,3.91-2.37,4.86-3.89-.14-5.38.59-2.17,3.4-3.75,3.89-3.65-1.35-5.3-1.12-3.11,2.56-4.78,2.54-3.1-2.41-4.69-2.69-3.79,1.47-5.33.94-2.19-3.24-3.63-4-4.05.23-5.36-.76-1.07-3.76-2.21-4.94-3.92-1-4.86-2.37.14-3.89-.59-5.37-3.4-2.18-3.89-3.76,1.34-3.65,1.11-5.3-2.56-3.11-2.53-4.78,2.41-3.1,2.68-4.69-1.46-3.79-.94-5.33,3.25-2.19,4-3.63-.22-4.05.76-5.36,3.76-1.07,4.94-2.21,1-3.92,2.37-4.86,3.9.14,5.38-.59,2.18-3.4,3.76-3.89,3.65,1.34,5.29,1.11,3.11-2.56,4.78-2.53,3.1,2.41,4.7,2.69,3.79-1.47,5.33-1,2.18,3.25,3.63,4,4-.23,5.35.76,1.07,3.75,2.22,4.93,3.91,1,4.86,2.37-.14,3.9.58,5.38,3.41,2.18,3.9,3.76-1.35,3.65-1.12,5.29S334.43,216.78,334.41,218.45Z" fill="#7c65d5" stroke="#263238" stroke-miterlimit="10" style="transform-origin:301.905px 217.935px"/>
<path class="animable" d="M334.25,216.6c0,1.67-2.41,3.1-2.69,4.69s1.47,3.79.95,5.33-3.25,2.19-4,3.63.22,4.05-.77,5.36-3.75,1.07-4.93,2.21-1,3.92-2.37,4.86-3.9-.14-5.38.59-2.18,3.41-3.76,3.89-3.65-1.34-5.29-1.11-3.11,2.56-4.78,2.53-3.1-2.41-4.7-2.68-3.79,1.46-5.33.94-2.18-3.25-3.63-4-4,.22-5.35-.76-1.07-3.76-2.22-4.94-3.91-1-4.86-2.37.14-3.9-.59-5.38-3.4-2.17-3.89-3.76,1.35-3.64,1.12-5.29-2.56-3.11-2.54-4.78,2.41-3.1,2.69-4.7-1.47-3.79-.94-5.33,3.24-2.18,4-3.63-.23-4,.76-5.35,3.76-1.07,4.94-2.22,1-3.91,2.37-4.86,3.89.14,5.37-.58,2.18-3.41,3.76-3.89,3.65,1.34,5.3,1.11,3.11-2.56,4.78-2.54,3.1,2.41,4.69,2.69,3.79-1.47,5.33-.94,2.19,3.24,3.63,4,4.05-.22,5.36.76,1.07,3.76,2.21,4.94,3.92,1,4.86,2.37-.14,3.89.59,5.38,3.4,2.17,3.89,3.75-1.34,3.65-1.11,5.3S334.28,214.93,334.25,216.6Z" fill="#7c65d5" stroke="#263238" stroke-miterlimit="10" style="transform-origin:301.745px 216.075px"/>
<path class="animable" d="M330.65,216.54c0,1.49-2.14,2.76-2.39,4.18s1.31,3.37.84,4.73-2.88,2-3.57,3.23.2,3.6-.67,4.77-3.34,1-4.39,2-.91,3.49-2.11,4.33-3.47-.13-4.78.52-1.94,3-3.35,3.46-3.24-1.2-4.7-1-2.77,2.28-4.25,2.25-2.76-2.14-4.18-2.39-3.37,1.31-4.74.84-1.94-2.88-3.23-3.57-3.6.21-4.76-.67-.95-3.34-2-4.39-3.48-.91-4.32-2.11.12-3.46-.52-4.78-3-1.94-3.46-3.34,1.19-3.25,1-4.71-2.27-2.77-2.25-4.25,2.14-2.76,2.39-4.18-1.3-3.37-.84-4.74,2.89-1.94,3.57-3.23-.2-3.6.68-4.76,3.34-.95,4.39-2,.91-3.48,2.11-4.32,3.46.12,4.78-.52,1.93-3,3.34-3.46,3.24,1.19,4.71,1,2.76-2.28,4.25-2.26,2.76,2.15,4.17,2.39,3.37-1.3,4.74-.83,1.95,2.88,3.23,3.56,3.6-.2,4.76.68,1,3.34,2,4.39,3.48.91,4.33,2.11-.13,3.46.52,4.78,3,1.93,3.46,3.34-1.2,3.24-1,4.71S330.68,215.05,330.65,216.54Z" fill="#fff" style="transform-origin:301.735px 216.09px"/>
<path class="animable" d="m304.32 209.64s1.6-6.9 0.9-9.54-7.77-3.23-10.6 0.18 3.16 10.69 4.85 12.42 2.85 1.54 4.85-3.06z" fill="#7c65d5" style="transform-origin:299.635px 205.812px"/>
<path class="animable" d="m306.92 220.42s5.69 4.24 8.38 4.66 6.08-5.83 4.08-9.79-11.06-1.39-13.32-0.53-2.55 1.99 0.86 5.66z" fill="#7c65d5" style="transform-origin:312.171px 219.122px"/>
<path class="animable" d="m296 216.05s-7 1.06-9.2 2.68-0.14 8.42 4.08 9.79 8.77-6.88 9.76-9.09 0.36-3.21-4.64-3.38z" fill="#7c65d5" style="transform-origin:293.472px 222.361px"/>
<path class="animable" d="M177.3,214.38c.58-.58,1.17-1.17,1.16-1.63a3,3,0,0,0-.07-2.13c-.35-.67-2.39,0-2.54-.62a3.11,3.11,0,0,1,.52-1.93c.32-.64.87-2.58.65-3s-.2-.55-1-.78-2.71.68-3.12.19a2.54,2.54,0,0,1-.35-1.87c0-.67.07-1.29-.33-1.59a4.63,4.63,0,0,0-2.22-.38,6.39,6.39,0,0,1-2.56-.42,2.84,2.84,0,0,1-1.19-1.58c-.26-.57-.52-1.16-1.05-1.35a6,6,0,0,0-2.42.16,8,8,0,0,1-2.79.18,3.85,3.85,0,0,1-1.92-1.14,3.26,3.26,0,0,0-1.68-1,4.15,4.15,0,0,0-1.55.34l-.82.32c-.3.12-.6.25-.9.36a6.1,6.1,0,0,1-1.86.43,5.82,5.82,0,0,1-2.45-.59,4.48,4.48,0,0,0-2.15-.49,2.47,2.47,0,0,0-.43.11,8.19,8.19,0,0,0-1.65,1,9.3,9.3,0,0,1-2,1.19l-.42.13a7.82,7.82,0,0,1-2.73,0,5.9,5.9,0,0,0-2.42,0,4.43,4.43,0,0,0-1.66,1.47,5.94,5.94,0,0,1-1.85,1.67,2.83,2.83,0,0,1-.4.17,10,10,0,0,1-2.42.46,9.64,9.64,0,0,0-2,.36,1.77,1.77,0,0,0-.39.19,3,3,0,0,0-1,1.66,4,4,0,0,1-1.12,1.91,5.63,5.63,0,0,1-1.64.85l-.91.31-.85.3a3.55,3.55,0,0,0-1.33.72,2.13,2.13,0,0,0-.27,1.69,2.94,2.94,0,0,1-.28,1.95c-.41.62-3.17.85-4,1.33s.08,1.61-.11,2.07.42.6.76,1.14a2.68,2.68,0,0,1,.6,1.8c-.14.63-1.69,1.12-2.28,1.72s-.25,1.32-.24,1.78.58.83,1.19,1.25,1.27.89,1.43,1.49-.92.59-1.25,1.26a3.52,3.52,0,0,0,.29,2.39c.22.41,1,.66,1.82.89a4.55,4.55,0,0,1,2.07,1,2.6,2.6,0,0,1,.35,1.88c0,.66-.07,1.28.31,1.58a4.71,4.71,0,0,0,2.23.39,6.4,6.4,0,0,1,2.56.41,3,3,0,0,1,1.2,1.59c.25.56.52,1.15,1.05,1.33a5.79,5.79,0,0,0,2.42-.14,7.74,7.74,0,0,1,2.79-.19,4.17,4.17,0,0,1,1.92,1.13,3,3,0,0,0,1.68,1,3.89,3.89,0,0,0,1.54-.33l.82-.32.86-.34a6.37,6.37,0,0,1,1.9-.44,5.92,5.92,0,0,1,2.45.58,4.47,4.47,0,0,0,2.15.5,2.17,2.17,0,0,0,.42-.11,7.87,7.87,0,0,0,1.66-1,10,10,0,0,1,2.05-1.18l.41-.13a7.76,7.76,0,0,1,2.72,0,5.78,5.78,0,0,0,2.43,0,4.58,4.58,0,0,0,1.66-1.47,5.76,5.76,0,0,1,1.86-1.67L161,233a11.11,11.11,0,0,1,2.44-.47,9.16,9.16,0,0,0,2-.35,1.91,1.91,0,0,0,.38-.18,3.1,3.1,0,0,0,1-1.66,4.12,4.12,0,0,1,1.12-1.91,5.55,5.55,0,0,1,1.68-.87l.88-.31.85-.28a3.79,3.79,0,0,0,1.33-.73,2.18,2.18,0,0,0,.26-1.69,2.89,2.89,0,0,1,.29-1.95,6.53,6.53,0,0,1,2.05-1.6c.77-.45,1.57-.92,1.76-1.38a3.1,3.1,0,0,0-.13-2.17c-.36-.58-1.08-.55-1-1.19A4.47,4.47,0,0,1,177.3,214.38Z" fill="#7c65d5" stroke="#263238" stroke-miterlimit="10" style="transform-origin:147.068px 217.295px"/>
<path class="animable" d="M177.14,212.51c.59-.58,1.18-1.18,1.16-1.63s-.58-.84-1.18-1.26-1.28-.89-1.43-1.49a3.09,3.09,0,0,1,.52-1.93c.33-.64.66-1.31.44-1.72s-1-.65-1.82-.89a4.5,4.5,0,0,1-2.07-1,2.54,2.54,0,0,1-.35-1.87c0-.67.07-1.29-.32-1.59a4.65,4.65,0,0,0-2.23-.38,6.31,6.31,0,0,1-2.55-.42,2.86,2.86,0,0,1-1.2-1.58c-.26-.57-.51-1.16-1.05-1.35a6,6,0,0,0-2.41.16,8,8,0,0,1-2.8.18,4,4,0,0,1-1.92-1.14,3.26,3.26,0,0,0-1.68-1,4.07,4.07,0,0,0-1.54.34l-.83.32c-.3.12-.6.25-.9.36a6,6,0,0,1-1.86.43,5.73,5.73,0,0,1-2.44-.59,4.5,4.5,0,0,0-2.15-.49,2.09,2.09,0,0,0-.43.11,7.67,7.67,0,0,0-1.65,1,9.36,9.36,0,0,1-2,1.19l-.41.13a7.82,7.82,0,0,1-2.73,0,5.73,5.73,0,0,0-2.42,0,4.53,4.53,0,0,0-1.67,1.47,5.83,5.83,0,0,1-1.85,1.67,2.4,2.4,0,0,1-.4.17,10.38,10.38,0,0,1-2.42.46,9.77,9.77,0,0,0-2,.36,1.42,1.42,0,0,0-.39.19,3,3,0,0,0-1,1.66,3.89,3.89,0,0,1-1.12,1.9,5.36,5.36,0,0,1-1.63.86l-.92.31-.84.3a3.61,3.61,0,0,0-1.34.72,2.18,2.18,0,0,0-.27,1.69,2.83,2.83,0,0,1-.28,1.95,6.35,6.35,0,0,1-2,1.59c-.77.47-1.56.94-1.76,1.4s.14,1,.49,1.55a2.62,2.62,0,0,1,.59,1.8,4.59,4.59,0,0,1-1.36,1.87c-.57.57-1.16,1.17-1.16,1.62s.58.84,1.2,1.26,1.26.89,1.42,1.49a3,3,0,0,1-.52,1.93c-.32.65-.65,1.31-.44,1.72s1,.66,1.82.89a4.5,4.5,0,0,1,2.07,1,2.65,2.65,0,0,1,.36,1.88c-.05.66-.08,1.28.31,1.58a4.8,4.8,0,0,0,2.22.39,6.37,6.37,0,0,1,2.56.41,3,3,0,0,1,1.21,1.58c.24.57.51,1.16,1,1.34a5.78,5.78,0,0,0,2.42-.14,8,8,0,0,1,2.79-.2,4.22,4.22,0,0,1,1.92,1.14,3,3,0,0,0,1.68,1,3.89,3.89,0,0,0,1.54-.33l.82-.32.86-.34a6.36,6.36,0,0,1,1.91-.44,5.88,5.88,0,0,1,2.44.58,4.61,4.61,0,0,0,2.15.5,2.47,2.47,0,0,0,.43-.11,8.13,8.13,0,0,0,1.66-1,9.92,9.92,0,0,1,2-1.18l.42-.13a7.76,7.76,0,0,1,2.72,0,5.78,5.78,0,0,0,2.43,0,4.48,4.48,0,0,0,1.65-1.47,5.87,5.87,0,0,1,1.86-1.67,3.52,3.52,0,0,1,.39-.17,11,11,0,0,1,2.43-.47,9.16,9.16,0,0,0,2-.35,1.57,1.57,0,0,0,.39-.19,3.08,3.08,0,0,0,1-1.65,4.14,4.14,0,0,1,1.13-1.91,5.55,5.55,0,0,1,1.68-.87c.28-.11.58-.21.87-.31l.85-.29a3.63,3.63,0,0,0,1.33-.72,2.18,2.18,0,0,0,.26-1.69,3,3,0,0,1,.29-1.95,6.58,6.58,0,0,1,2.06-1.6,4.61,4.61,0,0,0,1.76-1.38c.19-.46-.16-1-.49-1.56a2.55,2.55,0,0,1-.6-1.8A4.47,4.47,0,0,1,177.14,212.51Z" fill="#7c65d5" stroke="#263238" stroke-miterlimit="10" style="transform-origin:146.93px 215.405px"/>
<path class="animable" d="M173.44,212.87c.51-.51,1-1,1-1.43s-.51-.74-1-1.11-1.12-.77-1.25-1.3a2.74,2.74,0,0,1,.46-1.7c.28-.56.58-1.15.38-1.51s-.9-.57-1.59-.77a4.07,4.07,0,0,1-1.82-.87,2.23,2.23,0,0,1-.31-1.64c0-.58.07-1.13-.28-1.39a4,4,0,0,0-1.95-.34,5.57,5.57,0,0,1-2.24-.36,2.6,2.6,0,0,1-1.06-1.39c-.22-.5-.45-1-.92-1.18a5,5,0,0,0-2.11.13,7,7,0,0,1-2.46.16,3.42,3.42,0,0,1-1.68-1,2.88,2.88,0,0,0-1.48-.85,3.61,3.61,0,0,0-1.35.3l-.73.28c-.26.11-.52.22-.79.31a5.08,5.08,0,0,1-1.63.38,5.3,5.3,0,0,1-2.14-.51,4,4,0,0,0-1.89-.44,2,2,0,0,0-.38.1,7.32,7.32,0,0,0-1.45.86,7.47,7.47,0,0,1-1.79,1,2.53,2.53,0,0,1-.36.12,6.91,6.91,0,0,1-2.4,0,5.32,5.32,0,0,0-2.12,0,3.91,3.91,0,0,0-1.47,1.3,5.06,5.06,0,0,1-1.62,1.46,1.84,1.84,0,0,1-.35.15,9,9,0,0,1-2.12.4,8.34,8.34,0,0,0-1.74.32,1.53,1.53,0,0,0-.34.16,2.67,2.67,0,0,0-.89,1.46,3.57,3.57,0,0,1-1,1.67,4.84,4.84,0,0,1-1.43.75l-.81.28-.74.25a3.16,3.16,0,0,0-1.17.64,1.89,1.89,0,0,0-.24,1.48,2.49,2.49,0,0,1-.25,1.71,5.42,5.42,0,0,1-1.8,1.4c-.67.41-1.37.82-1.54,1.22s.13.89.43,1.37a2.3,2.3,0,0,1,.52,1.58,4.09,4.09,0,0,1-1.19,1.63c-.5.51-1,1-1,1.43s.51.74,1,1.11,1.11.77,1.25,1.3a2.73,2.73,0,0,1-.46,1.7c-.28.56-.57,1.15-.38,1.51s.9.57,1.59.78a4,4,0,0,1,1.82.85,2.32,2.32,0,0,1,.31,1.65c0,.58-.06,1.13.27,1.39a4.1,4.1,0,0,0,2,.34,5.6,5.6,0,0,1,2.24.37,2.53,2.53,0,0,1,1.06,1.39c.22.49.45,1,.92,1.17a5,5,0,0,0,2.12-.13,7.21,7.21,0,0,1,2.45-.17,3.6,3.6,0,0,1,1.68,1,2.75,2.75,0,0,0,1.48.85,3.39,3.39,0,0,0,1.35-.29c.24-.08.48-.18.72-.28l.75-.3a5.83,5.83,0,0,1,1.68-.39,5.11,5.11,0,0,1,2.14.52,4,4,0,0,0,1.89.43,1.86,1.86,0,0,0,.37-.1,6.75,6.75,0,0,0,1.46-.87,8.7,8.7,0,0,1,1.79-1l.37-.11a6.79,6.79,0,0,1,2.38,0,5.23,5.23,0,0,0,2.14,0,3.81,3.81,0,0,0,1.45-1.29,5.1,5.1,0,0,1,1.63-1.46,3.49,3.49,0,0,1,.34-.15,9.68,9.68,0,0,1,2.13-.41,7.88,7.88,0,0,0,1.75-.31,1.53,1.53,0,0,0,.34-.16,2.68,2.68,0,0,0,.88-1.46,3.65,3.65,0,0,1,1-1.67,4.85,4.85,0,0,1,1.47-.76c.25-.1.51-.18.77-.27l.74-.25a3.16,3.16,0,0,0,1.17-.64,1.85,1.85,0,0,0,.23-1.48,2.53,2.53,0,0,1,.26-1.72,5.8,5.8,0,0,1,1.8-1.4c.67-.4,1.37-.81,1.54-1.21s-.13-.89-.42-1.36a2.24,2.24,0,0,1-.53-1.59A3.91,3.91,0,0,1,173.44,212.87Z" fill="#fff" style="transform-origin:146.895px 215.405px"/>
<path class="animable" d="M147.53,217.76c0,.08-.94,7.25-5.5,8.93A5.53,5.53,0,0,1,141,227a8.45,8.45,0,0,1-7.14-2.18c-.85-.95-1-1.92-.34-2.66,1.56-1.8,7.59-4.84,7.84-5l.05,0,0,0c3-1.05,4.53-1.34,5.4-1S147.59,217.16,147.53,217.76ZM146,214.47l-.3.13a4.43,4.43,0,0,1-2.31,0c-.1,0-10.75-2.23-8.86-6,.79-1.61,3-3,5.16-3.79a14.28,14.28,0,0,1,1.78-.53c1.76-.4,3.14-.3,3.79.25,1.57,1.36,2.36,5.9,2.4,6.09v.07C147.48,212.87,147,214,146,214.47Zm19-.57a4,4,0,0,1-2.28,2.32,1.31,1.31,0,0,1-.28.09c-2.75.74-9.28.27-9.56.25h-.1c-2.76-.61-3.93-1.15-4.06-1.89s.63-1.27,1.29-1.75a39.37,39.37,0,0,1,7.56-4c2.13-.79,4.26-1.17,5.7-.42A4.19,4.19,0,0,1,165.08,213.9Z" fill="#7c65d5" style="transform-origin:149.28px 215.573px"/>
<path class="animable" d="M239.4,352.13c.81.1,1.65.2,2-.09s1.17-.34,1.64-1.37c.32-.69-1.46-1.9-1.08-2.39a3.12,3.12,0,0,1,1.84-.77,6.7,6.7,0,0,0,2.77-1.33c.18-.43.31-.5,0-1.26s-2.2-1.72-2.08-2.34a2.54,2.54,0,0,1,1.26-1.43c.54-.39,1.06-.74,1.05-1.23a4.45,4.45,0,0,0-1.07-2,6.43,6.43,0,0,1-1.24-2.27,2.87,2.87,0,0,1,.51-1.92,2.24,2.24,0,0,0,.41-1.66,5.79,5.79,0,0,0-1.61-1.8,8.17,8.17,0,0,1-1.87-2.09,4,4,0,0,1-.28-2.22,3.23,3.23,0,0,0-.28-1.92,4.11,4.11,0,0,0-1.21-1l-.76-.45c-.28-.16-.57-.32-.84-.49a6.33,6.33,0,0,1-1.49-1.2,6,6,0,0,1-1-2.28,4.58,4.58,0,0,0-.93-2,2,2,0,0,0-.36-.27,7.86,7.86,0,0,0-1.79-.7,9.44,9.44,0,0,1-2.19-.87l-.36-.25a7.73,7.73,0,0,1-1.7-2.14,5.69,5.69,0,0,0-1.51-1.89,4.54,4.54,0,0,0-2.19-.4,5.8,5.8,0,0,1-2.45-.43,2.82,2.82,0,0,1-.38-.21,10.8,10.8,0,0,1-1.86-1.62,8.42,8.42,0,0,0-1.5-1.34,1.4,1.4,0,0,0-.39-.19,3,3,0,0,0-1.93.22,4,4,0,0,1-2.2.29,5.66,5.66,0,0,1-1.68-.76l-.81-.53-.75-.49a3.61,3.61,0,0,0-1.39-.6,2.17,2.17,0,0,0-1.5.83,2.89,2.89,0,0,1-1.71,1c-.73.06-2.62-2-3.49-2.32s-1.22,1.06-1.7,1.19-.22.7-.43,1.31a2.67,2.67,0,0,1-1.05,1.58c-.59.28-1.92-.64-2.76-.74s-1.19.62-1.55.91-.3,1-.25,1.71a3.27,3.27,0,0,1-.29,2c-.37.48-1-.36-1.76-.21s-1.52,1.28-1.71,1.7.12,1.22.42,2a4.5,4.5,0,0,1,.5,2.23,2.56,2.56,0,0,1-1.26,1.44c-.54.37-1.05.73-1.05,1.22a4.76,4.76,0,0,0,1.06,2,6.08,6.08,0,0,1,1.25,2.27,3,3,0,0,1-.5,1.92,2.12,2.12,0,0,0-.41,1.65,5.75,5.75,0,0,0,1.6,1.81A8.08,8.08,0,0,1,195,332a4.15,4.15,0,0,1,.28,2.21,3.15,3.15,0,0,0,.27,1.92,4.09,4.09,0,0,0,1.21,1l.76.44.8.47a6.21,6.21,0,0,1,1.52,1.23,5.88,5.88,0,0,1,1.05,2.29,4.53,4.53,0,0,0,.93,2,2.45,2.45,0,0,0,.35.26,7.6,7.6,0,0,0,1.81.7,9.47,9.47,0,0,1,2.19.88l.36.24a7.88,7.88,0,0,1,1.69,2.14,5.59,5.59,0,0,0,1.52,1.89,4.48,4.48,0,0,0,2.18.4,5.87,5.87,0,0,1,2.46.43l.37.2a10.87,10.87,0,0,1,1.86,1.63,9.42,9.42,0,0,0,1.51,1.36,1.85,1.85,0,0,0,.38.18,3.06,3.06,0,0,0,1.93-.23,4,4,0,0,1,2.19-.28,5.4,5.4,0,0,1,1.73.78l.77.5.75.49a3.59,3.59,0,0,0,1.4.6,2.15,2.15,0,0,0,1.49-.83,2.87,2.87,0,0,1,1.72-1,6.47,6.47,0,0,1,2.52.63,4.54,4.54,0,0,0,2.17.53,3.14,3.14,0,0,0,1.63-1.44c.23-.64-.23-1.19.35-1.48A4.46,4.46,0,0,1,239.4,352.13Z" fill="#7c65d5" stroke="#263238" stroke-miterlimit="10" style="transform-origin:218.455px 329.816px"/>
<path class="animable" d="M240.77,350.85c.82.1,1.65.2,2-.09s.31-1,.26-1.71a2.07,2.07,0,0,1,2.14-2.82c.71-.14,1.44-.29,1.63-.72s-.13-1.21-.43-2a4.49,4.49,0,0,1-.5-2.24c.13-.65.71-1,1.26-1.43s1.06-.74,1.05-1.23a4.61,4.61,0,0,0-1.07-2,6.46,6.46,0,0,1-1.25-2.27,2.94,2.94,0,0,1,.51-1.92,2.21,2.21,0,0,0,.42-1.65,5.94,5.94,0,0,0-1.61-1.81,7.83,7.83,0,0,1-1.87-2.09,4,4,0,0,1-.29-2.21,3.14,3.14,0,0,0-.27-1.92,4,4,0,0,0-1.21-1l-.77-.45c-.28-.16-.56-.32-.83-.49a6.18,6.18,0,0,1-1.49-1.2,5.86,5.86,0,0,1-1-2.29,4.49,4.49,0,0,0-.94-2,1.91,1.91,0,0,0-.35-.27,8.36,8.36,0,0,0-1.79-.69,9.29,9.29,0,0,1-2.19-.88,3.27,3.27,0,0,1-.36-.25,7.58,7.58,0,0,1-1.7-2.14,5.79,5.79,0,0,0-1.52-1.88,4.37,4.37,0,0,0-2.18-.41,5.92,5.92,0,0,1-2.45-.42l-.38-.21a10.87,10.87,0,0,1-1.86-1.63,9.67,9.67,0,0,0-1.5-1.34,1.75,1.75,0,0,0-.39-.19,3,3,0,0,0-1.94.22,4,4,0,0,1-2.19.29,5.31,5.31,0,0,1-1.68-.76l-.81-.53-.75-.48a3.46,3.46,0,0,0-1.39-.6,2.12,2.12,0,0,0-1.5.82,2.86,2.86,0,0,1-1.71,1,6.43,6.43,0,0,1-2.52-.63,4.72,4.72,0,0,0-2.18-.53c-.48.13-.71.74-.92,1.34a2.64,2.64,0,0,1-1.06,1.58,4.58,4.58,0,0,1-2.3.08c-.81-.1-1.64-.2-2,.09s-.3,1-.25,1.71a3.25,3.25,0,0,1-.29,2,3.1,3.1,0,0,1-1.85.79c-.71.14-1.44.29-1.62.71s.12,1.22.42,2a4.59,4.59,0,0,1,.5,2.23,2.63,2.63,0,0,1-1.26,1.44c-.55.37-1.05.73-1.06,1.22a4.78,4.78,0,0,0,1.07,2,6.46,6.46,0,0,1,1.25,2.27,3,3,0,0,1-.5,1.93,2.1,2.1,0,0,0-.41,1.64,5.88,5.88,0,0,0,1.6,1.82,8,8,0,0,1,1.87,2.08,4.08,4.08,0,0,1,.29,2.21,3.06,3.06,0,0,0,.27,1.92,3.83,3.83,0,0,0,1.21,1l.76.45c.27.15.53.31.79.47a6.47,6.47,0,0,1,1.53,1.22,5.72,5.72,0,0,1,1,2.29,4.54,4.54,0,0,0,.94,2,2.48,2.48,0,0,0,.35.27,8.15,8.15,0,0,0,1.8.69,9.82,9.82,0,0,1,2.2.88c.12.08.24.16.35.25a7.69,7.69,0,0,1,1.69,2.13,5.73,5.73,0,0,0,1.53,1.89,4.46,4.46,0,0,0,2.18.4,6.06,6.06,0,0,1,2.46.43c.12.07.24.13.36.21a10.17,10.17,0,0,1,1.87,1.63,8.91,8.91,0,0,0,1.51,1.35,2.69,2.69,0,0,0,.38.19,3.21,3.21,0,0,0,1.93-.23,4,4,0,0,1,2.19-.29,5.93,5.93,0,0,1,1.72.78l.78.51.75.48a3.48,3.48,0,0,0,1.4.61c.56,0,1-.41,1.49-.84a2.87,2.87,0,0,1,1.71-1,6.47,6.47,0,0,1,2.52.63,4.76,4.76,0,0,0,2.18.54c.48-.13.7-.75.92-1.34a2.56,2.56,0,0,1,1.06-1.59A4.54,4.54,0,0,1,240.77,350.85Z" fill="#7c65d5" stroke="#263238" stroke-miterlimit="10" style="transform-origin:219.83px 328.805px"/>
<path class="animable" d="M238.21,348.16c.71.08,1.44.17,1.75-.08s.27-.86.23-1.51a1.81,1.81,0,0,1,1.88-2.47c.61-.12,1.25-.25,1.42-.63s-.11-1.06-.37-1.73a4.05,4.05,0,0,1-.44-2c.11-.56.62-.91,1.1-1.25s.93-.65.92-1.08a4.1,4.1,0,0,0-.93-1.75,5.53,5.53,0,0,1-1.1-2,2.53,2.53,0,0,1,.45-1.68,2,2,0,0,0,.36-1.46,5.13,5.13,0,0,0-1.41-1.58,7.26,7.26,0,0,1-1.64-1.83,3.59,3.59,0,0,1-.25-1.95,2.77,2.77,0,0,0-.24-1.68,3.61,3.61,0,0,0-1.06-.89l-.67-.39-.74-.43a5.69,5.69,0,0,1-1.3-1.05,5.31,5.31,0,0,1-.92-2,3.89,3.89,0,0,0-.82-1.76,1.92,1.92,0,0,0-.31-.23,6.77,6.77,0,0,0-1.57-.61,8,8,0,0,1-1.92-.77,3.62,3.62,0,0,1-.32-.22,6.7,6.7,0,0,1-1.49-1.88,5,5,0,0,0-1.33-1.65,3.93,3.93,0,0,0-1.92-.36,5.19,5.19,0,0,1-2.15-.37l-.33-.18a9.89,9.89,0,0,1-1.63-1.43,8,8,0,0,0-1.32-1.18,1.31,1.31,0,0,0-.34-.16,2.61,2.61,0,0,0-1.7.19,3.43,3.43,0,0,1-1.92.25,5,5,0,0,1-1.48-.66l-.71-.47-.66-.42a3.09,3.09,0,0,0-1.22-.53,1.88,1.88,0,0,0-1.31.72,2.47,2.47,0,0,1-1.5.86,5.43,5.43,0,0,1-2.21-.55,4.07,4.07,0,0,0-1.92-.46c-.42.11-.62.64-.81,1.17a2.35,2.35,0,0,1-.92,1.39,4.07,4.07,0,0,1-2,.07,2.89,2.89,0,0,0-1.76.08c-.3.24-.26.85-.22,1.5a2.86,2.86,0,0,1-.25,1.79,2.72,2.72,0,0,1-1.63.69c-.61.12-1.25.25-1.42.62s.11,1.07.37,1.74a4,4,0,0,1,.44,2,2.33,2.33,0,0,1-1.11,1.26c-.47.32-.92.64-.92,1.07a4.22,4.22,0,0,0,.93,1.75,5.45,5.45,0,0,1,1.1,2,2.63,2.63,0,0,1-.44,1.69,1.91,1.91,0,0,0-.36,1.45,5.14,5.14,0,0,0,1.41,1.59,7.25,7.25,0,0,1,1.64,1.82,3.6,3.6,0,0,1,.25,1.95,2.69,2.69,0,0,0,.24,1.68,3.36,3.36,0,0,0,1.06.89l.67.39.69.41a5.57,5.57,0,0,1,1.34,1.08,5.05,5.05,0,0,1,.92,2,3.94,3.94,0,0,0,.82,1.76,1.92,1.92,0,0,0,.31.23,7,7,0,0,0,1.58.61,8.5,8.5,0,0,1,1.92.78,3.53,3.53,0,0,1,.32.21,6.8,6.8,0,0,1,1.48,1.87,5,5,0,0,0,1.34,1.66,3.78,3.78,0,0,0,1.91.35,5.25,5.25,0,0,1,2.16.38,2,2,0,0,1,.32.18,9.09,9.09,0,0,1,1.64,1.43,8.08,8.08,0,0,0,1.32,1.19,2.06,2.06,0,0,0,.34.16,2.73,2.73,0,0,0,1.69-.2,3.54,3.54,0,0,1,1.92-.25A4.62,4.62,0,0,1,225,350l.69.44.66.42a2.89,2.89,0,0,0,1.22.53c.5,0,.91-.35,1.31-.73a2.53,2.53,0,0,1,1.5-.85,5.91,5.91,0,0,1,2.22.55,4,4,0,0,0,1.9.47c.43-.11.62-.66.82-1.18a2.21,2.21,0,0,1,.92-1.38A3.84,3.84,0,0,1,238.21,348.16Z" fill="#fff" style="transform-origin:219.82px 328.835px"/>
<path class="animable" d="m218.39 330.76c-0.07 0-6.29 3.73-10.42 1.17a5.18 5.18 0 0 1-0.88-0.68 8.41 8.41 0 0 1-2.69-7c0.23-1.25 0.91-1.95 1.89-1.9 2.38 0.12 8.48 3 8.74 3.11h0.05c2.66 1.68 3.85 2.74 4.11 3.64s-0.29 1.34-0.8 1.66zm1.68-3.2a2.69 2.69 0 0 1-0.29-0.16 4.36 4.36 0 0 1-1.46-1.79c0-0.09-4.87-9.84-0.72-10.69 1.76-0.36 4.19 0.5 6.17 1.73a13.88 13.88 0 0 1 1.51 1.07c1.4 1.15 2.18 2.29 2.14 3.15-0.1 2.07-3.19 5.49-3.32 5.64-1.88 1.2-3.03 1.49-4.03 1.05zm12.17 14.65a4.07 4.07 0 0 1-3.23-0.36l-0.25-0.17c-2.27-1.71-5.92-7.15-6.08-7.38l-0.05-0.08c-1.22-2.55-1.52-3.81-1-4.37s1.39-0.28 2.17-0.06a39.12 39.12 0 0 1 7.85 3.46c1.93 1.19 3.54 2.64 3.84 4.23a4.2 4.2 0 0 1-3.25 4.73z" fill="#7c65d5" style="transform-origin:219.95px 328.614px"/>
</g>
<g class="animable" style="transform-origin:285.943px 157.246px">
<path class="animable" d="M426.25,42.64C420.1,23,409.24,8.9,402,11.17a5.24,5.24,0,0,0-1.75.95l-137.43,59,22.27,71.16,139.18-60C431.51,80.06,432.4,62.29,426.25,42.64Z" fill="#7c65d5" stroke="#263238" stroke-miterlimit="10" style="transform-origin:346.579px 76.6051px"/>
<ellipse class="animable" cx="273.96" cy="106.71" rx="13.74" ry="37.28" fill="#263238" stroke="#263238" stroke-miterlimit="10" style="transform-origin:273.96px 106.71px;transform:rotate(-17.38deg)"/>
<path class="animable" d="M281.56,105.39c-4-12.93-11.19-22.2-15.95-20.71a3.62,3.62,0,0,0-1.16.62L255,89.61l1.58,5.07c-.37,4.81.48,11.27,2.61,18.07s5.11,12.59,8.16,16.33l2.3,7.35,10.63-4.93C285,130,285.61,118.31,281.56,105.39Z" fill="#7c65d5" stroke="#263238" stroke-miterlimit="10" style="transform-origin:269.623px 110.476px"/>
<path class="animable" d="m270.93 110.32c4.05 12.93 3.47 24.62-1.3 26.11s-11.91-7.78-16-20.71-3.42-24.62 1.37-26.11 11.89 7.78 15.93 20.71z" fill="#263238" stroke="#263238" stroke-miterlimit="10" style="transform-origin:262.283px 113.02px"/>
<line class="animable" x1="264.59" x2="263.07" y1="91.13" y2="91.86" fill="#7c65d5" stroke="#263238" stroke-miterlimit="10" style="transform-origin:263.83px 91.495px"/>
<line class="animable" x1="271.48" x2="265.95" y1="87.82" y2="90.48" fill="#7c65d5" stroke="#263238" stroke-miterlimit="10" style="transform-origin:268.715px 89.15px"/>
<line class="animable" x1="275.97" x2="267.56" y1="92.86" y2="96.9" fill="#7c65d5" stroke="#263238" stroke-miterlimit="10" style="transform-origin:271.765px 94.88px"/>
<line class="animable" x1="278.85" x2="270.44" y1="99.27" y2="103.31" fill="#7c65d5" stroke="#263238" stroke-miterlimit="10" style="transform-origin:274.645px 101.29px"/>
<line class="animable" x1="275.56" x2="273.08" y1="110.71" y2="111.9" fill="#7c65d5" stroke="#263238" stroke-miterlimit="10" style="transform-origin:274.32px 111.305px"/>
<line class="animable" x1="281.49" x2="277.57" y1="107.86" y2="109.74" fill="#7c65d5" stroke="#263238" stroke-miterlimit="10" style="transform-origin:279.53px 108.8px"/>
<path class="animable" d="m263.93 113.23c-1.52-4.85-4.2-8.33-6-7.77a1.22 1.22 0 0 0-0.43 0.24l-18 14.07 1.91 6.09 22.03-2.86c1.79-0.52 2.01-4.91 0.49-9.77z" fill="#7c65d5" stroke="#263238" stroke-miterlimit="10" style="transform-origin:252.22px 115.63px"/>
<path class="animable" d="M241.55,122.46c.53,1.69.45,3.21-.17,3.4s-1.55-1-2.08-2.69-.45-3.21.17-3.4S241,120.78,241.55,122.46Z" fill="#7c65d5" stroke="#263238" stroke-miterlimit="10" style="transform-origin:240.425px 122.815px"/>
<path class="animable" d="m164.16 275.13s0.07-4 4-3.17 6 8.37 8.06 13.08 9.88 12.39 17.1 10.35 6.65-10.69 12.43-12 8.58 3.38 11 8.1 3.44 11.51 9.25 10.9 7.62-4.2 7.62-4.2-9.15 3.5-11.39-7.38c-2.91-14.07-13.73-17.39-17.4-12.77s-4.13 9.19-8.49 11.64-10.08 0.91-13.25-3.45-8.3-19.23-11.65-21.23-4-0.05-4-0.05-6.44 3.65-3.28 10.18z" fill="#263238" stroke="#263238" stroke-linecap="round" stroke-linejoin="round" style="transform-origin:198.454px 283.263px"/>
<path class="animable" d="M228.86,303.56a9.08,9.08,0,0,1-4.11-1c-2.85-1.48-3.87-5-5.17-9.43-2.08-7.15-4.1-12.65-9.54-13.07-2-.16-2.91,1-5,5-2,3.8-4.78,9-11.33,9.11-11.44.23-15.22-9.08-18-15.83-1.88-4.59-3.5-8.55-6.54-9.41-2-.56-2.5-.71-4.28,4.89-1.11,3.49-2.37,7.44-5.91,9.58-3.25,2-7.24,1.59-10.66-1-4.63-3.48-8.47-11.5-6-20.87a3.36,3.36,0,1,1,6.5,1.74c-1.63,6.07.54,11.52,3.51,13.75.84.64,2.07,1.25,3.15.6,1.37-.83,2.19-3.39,3-5.86,1.32-4.12,3.76-11.8,12.52-9.32,6.19,1.75,8.71,7.9,10.94,13.33,3,7.29,5.15,11.77,11.66,11.65,2.33,0,3.46-1.71,5.49-5.54s4.83-9.11,11.51-8.58c10.51.81,13.5,11.09,15.48,17.89.54,1.87,1.36,4.67,2,5.42a2.73,2.73,0,0,0,2.66-.31c1-.68,4.18-3.76,3-14.92-1.78-17.57,4.08-149.56,4.13-152.77,0-.93.43-4.46,2-5.09l.66-.22c.92,0,.79.18.78,1.11,0,.78-2.61,139.11-.87,156.29,1.34,13.24-2.5,18.82-6,21.17A9.64,9.64,0,0,1,228.86,303.56Z" fill="#fff" stroke="#263238" stroke-linecap="round" stroke-linejoin="round" style="transform-origin:191.434px 213.43px"/>
<path class="animable" d="m227.88 301.22s3.7 2 8-3.16c3-3.72 3-8.73 3-12" fill="none" stroke="#263238" stroke-linecap="round" stroke-linejoin="round" style="transform-origin:233.38px 293.831px"/>
<line class="animable" x1="238.92" x2="238.57" y1="282.97" y2="277.27" fill="none" stroke="#263238" stroke-linecap="round" stroke-linejoin="round" style="transform-origin:238.745px 280.12px"/>
<path class="animable" d="M151.54,281.92a11.89,11.89,0,0,0,2.08.55c5.32.93,8-4,8-4" fill="none" stroke="#263238" stroke-linecap="round" stroke-linejoin="round" style="transform-origin:156.58px 280.528px"/>
<path class="animable" d="m146 277.53a10 10 0 0 0 1.8 2.13" fill="none" stroke="#263238" stroke-linecap="round" stroke-linejoin="round" style="transform-origin:146.9px 278.595px"/>
<path class="animable" d="M190.85,291.93c.51.09,1.06.17,1.67.22,4.28.39,6.36-1.46,6.36-1.46" fill="none" stroke="#263238" stroke-linecap="round" stroke-linejoin="round" style="transform-origin:194.865px 291.447px"/>
<path class="animable" d="M186.39,290.24a6.53,6.53,0,0,0,1.46.81" fill="none" stroke="#263238" stroke-linecap="round" stroke-linejoin="round" style="transform-origin:187.12px 290.645px"/>
</g>
<g class="animable" style="transform-origin:381.925px 142.601px">
<path class="animable" d="M392.3,182.15s6.62-2,8.89-2.33,7.63-.09,8.28-2.13-9-5.51-11.24-5.54a4,4,0,0,0-4,2.41c-.63,1.22-3.83,7.76-3.83,7.76Z" fill="#7c65d5" stroke="#263238" stroke-miterlimit="10" style="transform-origin:399.951px 177.228px"/>
<path class="animable" d="M446.67,233.7c-.8-1.25-10.85-3.88-11.87-4.31s-9.18-5.92-12.84-8.65-16.89-13.05-21.36-17-13.68-7.63-13.68-7.63,13.17-24.72,17.1-38,3.48-24.26,2.72-28.18c0,0-15-1.69-24.44-4.72a45.34,45.34,0,0,1-15.52-8.7l-3.13,2.63s-6.9,6.27-18.1,24a94.83,94.83,0,0,0-13.79,37.48c-.25,2.47,6.47,7.11,10,7.58s17.76-3,18.39-3.21,6.39-.72,6.39-.72-3.38,18.28-1.37,21.4,7.13,4.65,7.13,4.65,49.47,23.67,52.33,25.57,8.11,8,8.11,8,4.36,10.57,6,14.51,1.93,7.66,4,7.07,4.66-8,5-14.13S447.48,235,446.67,233.7Zm-77.92-60.38-11.73-1,14.9-17.07,2,2.92Z" fill="#263238" stroke="#263238" stroke-linecap="round" stroke-linejoin="round" style="transform-origin:389.795px 191.021px"/>
<line class="animable" x1="370.54" x2="364.19" y1="154.24" y2="147.08" fill="none" stroke="#6e6e6e" stroke-linecap="round" stroke-linejoin="round" style="transform-origin:367.365px 150.66px"/>
<line class="animable" x1="368.75" x2="366.96" y1="173.32" y2="182.15" fill="none" stroke="#6e6e6e" stroke-linecap="round" stroke-linejoin="round" style="transform-origin:367.855px 177.735px"/>
<path class="animable" d="m357 172.31s-5.67 7.12-8 8.73" fill="none" stroke="#6e6e6e" stroke-linecap="round" stroke-linejoin="round" style="transform-origin:353px 176.675px"/>
<path class="animable" d="M446.67,233.7c-.8-1.25-10.85-3.88-11.87-4.31-.8-.33-5.87-3.7-9.82-6.48a16.36,16.36,0,0,1-4.36,10.8c2.13,1.08,3.56,1.83,4,2.11,2.85,1.9,8.11,8,8.11,8s4.36,10.57,6,14.51,1.93,7.66,4,7.07,4.66-8,5-14.13S447.48,235,446.67,233.7Z" fill="#fff" stroke="#263238" stroke-linecap="round" stroke-linejoin="round" style="transform-origin:434.224px 244.186px"/>
<path class="animable" d="m436.31 229.87c0.8 2.22 1.92 5.85 1.45 7.19-0.65 1.84-2.51 2.64-4.39 4.26a3 3 0 0 0-1.12 1.93l0.46 0.53s4.36 10.57 6 14.51 1.93 7.66 4 7.07 4.66-8 5-14.13-0.15-16.28-1-17.53c-0.71-1-7.29-2.9-10.4-3.83z" fill="#7c65d5" stroke="#263238" stroke-miterlimit="10" style="transform-origin:440.034px 247.646px"/>
<path class="animable" d="M383.41,30.59s-10.94-9.77-13.51-10.73-9,1.91-15.37,4.59-28,16.82-28,16.82-10.13,4.26-12.51,5A8.59,8.59,0,0,0,308.66,52c-.53,2.42-1.81,2.66.28,2.53s5.37-2.82,6-2.94,8.62-.72,8.62-.72-2.95,3.35-3.11,4.57,2.39.74,4.59-1.67,4.16-3.18,5.2-4.7a33.74,33.74,0,0,0,2.26-4.48s21.09-7,22.63-7.57,9.58-3.29,9.58-3.29,5.93,9,9.35,14.44,3.76,9.33,3.76,9.33-4.93,11.67-6.71,19.88-.4,24.71-.45,28.21-6.78,11.43-7,13.49,3.6,6.65,9.31,10.24,15.55,6.43,20.5,6.51,13.62-1.84,14.49-4.5,1.06-14.82,1.11-17.91-.65-10.31.46-15.23,3.31-13.75.13-21.22-6.34-15.55-6.34-15.55-17.34-23.35-17.53-24S383.41,30.59,383.41,30.59Z" fill="#fff" stroke="#263238" stroke-linecap="round" stroke-linejoin="round" style="transform-origin:359.547px 77.7516px"/>
<path class="animable" d="m308.83 52.64s3.33-3.57 4.07-4.11 5.65-1.72 5.65-1.72" fill="none" stroke="#263238" stroke-linecap="round" stroke-linejoin="round" style="transform-origin:313.69px 49.725px"/>
<path class="animable" d="M409.65,77c-3.17-7.47-6.34-15.55-6.34-15.55s-17.34-23.35-17.53-24-2.37-6.83-2.37-6.83-10.94-9.77-13.51-10.73-9,1.91-15.37,4.59c-3.38,1.42-11,6.05-17.49,10.09l4.15,7.16c6-2,13.08-4.35,13.95-4.7,1.54-.63,9.58-3.29,9.58-3.29s5.93,9,9.35,14.44,3.76,9.33,3.76,9.33-4.93,11.67-6.71,19.88-.4,24.71-.45,28.21-6.78,11.43-7,13.49,3.6,6.65,9.31,10.24,15.55,6.43,20.5,6.51,13.62-1.84,14.49-4.5,1.06-14.82,1.11-17.91-.65-10.31.46-15.23S412.83,84.42,409.65,77Z" fill="#8f8f8f" stroke="#263238" stroke-linecap="round" stroke-linejoin="round" style="transform-origin:374.173px 77.7716px"/>
<path class="animable" d="m373.86 97.62s6.43 11.86 10.21 16.41" fill="#fff" stroke="#263238" stroke-linecap="round" stroke-linejoin="round" style="transform-origin:378.965px 105.825px"/>
<path class="animable" d="M384,117.66c.48.47,1,.91,1.45,1.31" fill="#fff" stroke="#263238" stroke-linecap="round" stroke-linejoin="round" style="transform-origin:384.725px 118.315px"/>
<path class="animable" d="m377.94 109.66a48.14 48.14 0 0 0 4.84 6.67" fill="#fff" stroke="#263238" stroke-linecap="round" stroke-linejoin="round" style="transform-origin:380.36px 112.995px"/>
<path class="animable" d="M380.8,52.38s.9-5.13-.7-8-2.91-11.17,0-15.25,10.76-2.71,10.76-2.71,3.39-6.12,10.19-6,10.81,6.76,10.81,6.76,9.65-11,23.13-3.74,11.11,26.55,11.11,26.55S457,55.47,456,65.13s-4.19,17-16.35,17.25S430.32,73,425.26,66.9s-11.82-7.81-15.37-5a19.84,19.84,0,0,0-5.25,6.71s1-10.28-5.56-13.07-13-.83-13.6,0a14,14,0,0,1-2.5,2Z" fill="#263238" stroke="#263238" stroke-linecap="round" stroke-linejoin="round" style="transform-origin:417.22px 51.4015px"/>
<path class="animable" d="m394.64 46.77a10 10 0 0 1 1.63 4.23" fill="none" stroke="#787878" stroke-linecap="round" stroke-linejoin="round" style="transform-origin:395.455px 48.885px"/>
<path class="animable" d="M390.9,26.38a17.89,17.89,0,0,0-2.85,10.26c.21,3.65,3.08,5.78,5.39,8.53" fill="none" stroke="#787878" stroke-linecap="round" stroke-linejoin="round" style="transform-origin:390.741px 35.775px"/>
<path class="animable" d="M431.78,54.78c.22.25.45.48.67.7,4.06,4,11.69,3.28,13-2.47" fill="none" stroke="#787878" stroke-linecap="round" stroke-linejoin="round" style="transform-origin:438.615px 55.5046px"/>
<path class="animable" d="M400.85,48s3.8-5.91,13.69-5.55c7.85.29,12,5.85,15.37,10.12" fill="none" stroke="#787878" stroke-linecap="round" stroke-linejoin="round" style="transform-origin:415.38px 47.5021px"/>
<path class="animable" d="m452.44 62a6.77 6.77 0 0 0-1.11-2.13" fill="none" stroke="#787878" stroke-linecap="round" stroke-linejoin="round" style="transform-origin:451.885px 60.935px"/>
<path class="animable" d="M411.08,52.25s9.15-5,16.19,5,3.65,17,15.37,18c7.52.65,10.21-4.28,10.38-8.89" fill="none" stroke="#787878" stroke-linecap="round" stroke-linejoin="round" style="transform-origin:432.05px 63.154px"/>
<path class="animable" d="M401.73,37.49a3.78,3.78,0,0,1-.7-.85c-1.6-2.7-1.09-8.67,4-7.76" fill="none" stroke="#787878" stroke-linecap="round" stroke-linejoin="round" style="transform-origin:402.627px 33.1383px"/>
<path class="animable" d="m412.29 28.38s2 4.56-1.16 8a7.44 7.44 0 0 1-6.39 2.38" fill="none" stroke="#787878" stroke-linecap="round" stroke-linejoin="round" style="transform-origin:408.827px 33.5965px"/>
<path class="animable" d="M383,70.75s-2.22,9.85,1.64,13.42,9.9-.87,13.31-8Z" fill="#fff" stroke="#263238" stroke-linecap="round" stroke-linejoin="round" style="transform-origin:390.157px 78.09px"/>
<path class="animable" d="M406.93,64.57s2.66-3.85,3.94-3-.92,3.88-2.69,5.8-2.62,1.9-2.62,1.9Z" fill="#fff" stroke="#263238" stroke-linecap="round" stroke-linejoin="round" style="transform-origin:408.406px 65.3587px"/>
<path class="animable" d="M405.91,60.87,407.75,54c.06-3.68-3.77-4.56-6.6-4a20.15,20.15,0,0,0-4.78,1.66s-3.44-3.88-6.42-4.43c-3.43-.64-6.11.72-6.15,2.88a14.79,14.79,0,0,1-1.16,4.74l-.8-3.69s-.63,12.11-.25,15.36,2.24,14.73,9.5,14.64c6.05-.07,13.58-10.59,14.7-12.74.65-1.25,1.18-4.7,1.53-8.09Z" fill="#fff" stroke="#263238" stroke-linecap="round" stroke-linejoin="round" style="transform-origin:394.609px 64.1158px"/>
<path class="animable" d="M381.8,53.56s-.77-6.07-2.33-2.85,2,8.47,2,8.47Z" fill="#fff" stroke="#263238" stroke-linecap="round" stroke-linejoin="round" style="transform-origin:380.437px 54.4741px"/>
<path class="animable" d="M389.53,70.56s.4,1.74,4.52,1.37" fill="none" stroke="#263238" stroke-linecap="round" stroke-linejoin="round" style="transform-origin:391.79px 71.2708px"/>
<path class="animable" d="m387.76 72.91a4.82 4.82 0 0 0 6.47 1.19" fill="none" stroke="#263238" stroke-linecap="round" stroke-linejoin="round" style="transform-origin:390.995px 73.8849px"/>
<path class="animable" d="m385.14 61.19a5.34 5.34 0 0 0 5.79 2.69" fill="none" stroke="#263238" stroke-linecap="round" stroke-linejoin="round" style="transform-origin:388.035px 62.5914px"/>
<path class="animable" d="m396.77 65.81a5.32 5.32 0 0 0 6.23 1.61" fill="none" stroke="#263238" stroke-linecap="round" stroke-linejoin="round" style="transform-origin:399.885px 66.8214px"/>
<path class="animable" d="m392.52 60.24s-1.8-3.53-6.61-2.73" fill="none" stroke="#263238" stroke-linecap="round" stroke-linejoin="round" style="transform-origin:389.215px 58.816px"/>
<path class="animable" d="M397.3,61.4s4.6-.9,7.05,2.84" fill="none" stroke="#263238" stroke-linecap="round" stroke-linejoin="round" style="transform-origin:400.825px 62.7725px"/>
<path class="animable" d="M395.67,100.83l-7.34,20.89s-31.46-3.8-33.51-4.25-11.51-2-13.56-2.28-5.57.12-6.61.72-4.78,3-6,3.2-3.71.35-2.91,1.4,3.7.88,3.7.88a4.61,4.61,0,0,1-2.91,1.19c-1.64,0-6.82,1.74-5,2s7,.93,9.66,1.18,12.85-4.53,12.85-4.53,16,5.62,25.4,8.45,24,6.15,26.48,6.19,12.13-23.9,14.06-29,4.59-16,3.61-19.1S409,82.09,409,82.09" fill="#8f8f8f" stroke="#263238" stroke-linecap="round" stroke-linejoin="round" style="transform-origin:367.474px 108.98px"/>
<path class="animable" d="M363.32,127.74l2.53-8.79c-5.62-.7-10.28-1.31-11-1.48-2.05-.44-11.51-2-13.56-2.28s-5.57.12-6.61.72-4.78,3-6,3.2-3.71.35-2.91,1.4,3.7.88,3.7.88a4.61,4.61,0,0,1-2.91,1.19c-1.64,0-6.82,1.74-5,2s7,.93,9.66,1.18,12.85-4.53,12.85-4.53S354.37,124.84,363.32,127.74Z" fill="#fff" stroke="#263238" stroke-linecap="round" stroke-linejoin="round" style="transform-origin:343.514px 121.419px"/>
<path class="animable" d="M329.42,121.39s1.22.64,3.93-1" fill="#fff" stroke="#263238" stroke-linecap="round" stroke-linejoin="round" style="transform-origin:331.385px 120.951px"/>
</g>
</svg>
